<svg width="389" height="375" viewBox="0 0 389 375" fill="none" xmlns="http://www.w3.org/2000/svg">
<g clip-path="url(#clip0_367_10148)">
<path d="M261.282 12.8359C199.623 -5.39069 128.799 -7.3762 75.0659 27.884C36.2148 53.3821 10.4392 96.5582 2.67943 142.312C-5.07159 188.057 4.4077 235.91 25.5921 277.213C41.2163 307.684 63.71 335.455 93.4833 352.454C122.82 369.209 157.412 374.582 191.218 374.974C224.587 375.357 258.55 371.003 288.882 357.13C332.718 337.084 366.593 297.199 380.9 251.254C395.206 205.308 390.196 154.025 368.863 110.875C347.53 67.7248 312.153 27.8753 261.282 12.8359Z" fill="#F2D3E8"/>
<path d="M73.8791 136.295C71.5922 134.422 69.1482 132.742 66.582 131.279L65.1854 139.351" stroke="#2E2854" stroke-width="1.5" stroke-linecap="round" stroke-linejoin="round"/>
<path d="M66.582 131.287C72.3778 142.835 85.4708 154.739 98.1448 157.36C110.819 159.982 125.099 155.192 132.509 144.611" stroke="#2E2854" stroke-width="1.5" stroke-linecap="round" stroke-linejoin="round"/>
<g style="mix-blend-mode:multiply" opacity="0.15">
<path d="M89.2938 116.405C89.4422 111.772 89.3811 107.139 89.128 102.506C88.9185 98.7878 86.0817 95.766 82.3807 95.3393C72.0373 94.1462 61.4844 94.0853 50.9402 94.7384C47.0124 94.9822 43.8962 98.1434 43.774 102.071C43.6169 107.008 43.6518 111.998 43.9224 117.284C44.1232 121.125 47.1869 124.181 51.0275 124.451C61.3273 125.183 71.7667 125.026 82.5641 123.737C86.3261 123.284 89.1804 120.167 89.2938 116.396V116.405Z" fill="#2E2854"/>
</g>
<path d="M84.1876 111.624C84.336 106.991 84.2749 102.358 84.0218 97.7254C83.8123 94.0069 80.9755 90.9851 77.2746 90.5584C66.9311 89.3653 56.3782 89.3044 45.834 89.9575C41.9062 90.2013 38.79 93.3625 38.6678 97.29C38.5107 102.228 38.5456 107.218 38.8162 112.503C39.017 116.344 42.0807 119.401 45.9213 119.67C56.2211 120.402 66.6605 120.245 77.4579 118.956C81.2199 118.504 84.0742 115.386 84.1876 111.615V111.624Z" fill="white"/>
<path d="M49.0898 99.676C57.7574 99.3887 66.4424 99.4409 75.1011 99.8415" stroke="#2E2854" stroke-width="1.5" stroke-linecap="round" stroke-linejoin="round"/>
<path d="M48.5399 109.325C54.5365 109.421 60.5243 109.517 66.5209 109.612" stroke="#2E2854" stroke-width="1.5" stroke-linecap="round" stroke-linejoin="round"/>
<path d="M84.1876 111.624C84.336 106.991 84.2749 102.358 84.0218 97.7254C83.8123 94.0069 80.9755 90.9851 77.2746 90.5584C66.9311 89.3653 56.3782 89.3044 45.834 89.9575C41.9062 90.2013 38.79 93.3625 38.6678 97.29C38.5107 102.228 38.5456 107.218 38.8162 112.503C39.017 116.344 42.0807 119.401 45.9213 119.67C56.2211 120.402 66.6605 120.245 77.4579 118.956C81.2199 118.504 84.0742 115.386 84.1876 111.615V111.624Z" stroke="#2E2854" stroke-width="1.5" stroke-linecap="round" stroke-linejoin="round"/>
<path d="M187.089 224.868C177.915 253.884 181.136 288.7 193.208 316.636" stroke="#2E2854" stroke-width="1.5" stroke-linecap="round" stroke-linejoin="round"/>
<path d="M185.361 312.517C187.849 314.102 190.476 315.487 193.199 316.628L193.627 308.451" stroke="#2E2854" stroke-width="1.5" stroke-linecap="round" stroke-linejoin="round"/>
<g style="mix-blend-mode:multiply" opacity="0.15">
<path d="M230.34 351.2C230.488 346.567 230.427 341.934 230.174 337.301C229.964 333.583 227.127 330.561 223.427 330.134C213.083 328.941 202.53 328.88 191.986 329.534C188.058 329.777 184.942 332.939 184.82 336.866C184.663 341.804 184.698 346.794 184.968 352.08C185.169 355.92 188.233 358.977 192.073 359.247C202.382 359.969 212.813 359.821 223.61 358.532C227.372 358.08 230.226 354.962 230.34 351.191V351.2Z" fill="#2E2854"/>
</g>
<path d="M223.418 344.695C223.566 340.062 223.505 335.429 223.252 330.796C223.043 327.078 220.206 324.056 216.505 323.629C206.161 322.436 195.608 322.375 185.064 323.028C181.136 323.272 178.02 326.433 177.898 330.361C177.741 335.299 177.776 340.288 178.046 345.574C178.247 349.415 181.311 352.471 185.152 352.741C195.451 353.464 205.891 353.316 216.688 352.027C220.45 351.574 223.304 348.457 223.418 344.686V344.695Z" fill="white"/>
<path d="M223.418 344.695C223.566 340.062 223.505 335.429 223.252 330.796C223.043 327.078 220.206 324.056 216.505 323.629C206.161 322.436 195.608 322.375 185.064 323.028C181.136 323.272 178.02 326.433 177.898 330.361C177.741 335.299 177.776 340.288 178.046 345.574C178.247 349.415 181.311 352.471 185.152 352.741C195.451 353.464 205.891 353.316 216.688 352.027C220.45 351.574 223.304 348.457 223.418 344.686V344.695Z" stroke="#2E2854" stroke-width="1.5" stroke-linecap="round" stroke-linejoin="round"/>
<path d="M193.356 328.201H187.133V347.551H193.356V328.201Z" fill="#76C9BF"/>
<path d="M204.389 331.85H198.166V347.551H204.389V331.85Z" fill="#2E2854"/>
<path d="M215.422 335.49H209.199V347.551H215.422V335.49Z" fill="#2E2854"/>
<path d="M153.056 227.027C150.211 241.37 145.506 255.652 136.69 267.33C127.874 279.008 114.45 287.82 99.8118 288.517C85.1739 289.214 68.4935 276.212 63.972 262.305" stroke="#2E2854" stroke-width="1.5" stroke-linecap="round" stroke-linejoin="round"/>
<path d="M61.9296 270.761C62.6104 267.939 63.2912 265.118 63.9721 262.305L70.2916 267.452" stroke="#2E2854" stroke-width="1.5" stroke-linecap="round" stroke-linejoin="round"/>
<g style="mix-blend-mode:multiply" opacity="0.15">
<path d="M88.0369 191.863H42.2116C36.2435 191.863 31.4055 196.69 31.4055 202.644V248.363C31.4055 254.317 36.2435 259.144 42.2116 259.144H88.0369C94.0049 259.144 98.8429 254.317 98.8429 248.363V202.644C98.8429 196.69 94.0049 191.863 88.0369 191.863Z" fill="#2E2854"/>
</g>
<path d="M83.6202 187.247H37.7949C31.8269 187.247 26.9889 192.074 26.9889 198.028V243.747C26.9889 249.702 31.8269 254.528 37.7949 254.528H83.6202C89.5882 254.528 94.4263 249.702 94.4263 243.747V198.028C94.4263 192.074 89.5882 187.247 83.6202 187.247Z" fill="white"/>
<path d="M83.6202 187.247H37.7949C31.8269 187.247 26.9889 192.074 26.9889 198.028V243.747C26.9889 249.702 31.8269 254.528 37.7949 254.528H83.6202C89.5882 254.528 94.4263 249.702 94.4263 243.747V198.028C94.4263 192.074 89.5882 187.247 83.6202 187.247Z" stroke="#2E2854" stroke-width="1.5" stroke-linecap="round" stroke-linejoin="round"/>
<path d="M76.4366 207.32C71.0947 213.033 65.5433 218.545 59.7737 223.823C58.735 215.733 57.5915 208.104 56.0029 200.31C52.6249 200.911 49.3866 202.269 46.6633 204.377C39.4883 209.933 36.4508 220.261 39.4796 228.813C42.5084 237.355 51.3855 243.477 60.472 243.286C69.5585 243.094 78.1649 236.615 80.8446 227.95C82.9831 221.036 81.281 213.016 76.4279 207.32H76.4366Z" fill="#D24D84"/>
<path d="M58.2462 194.458C59.8348 202.252 60.9695 209.872 62.017 217.971C67.7866 212.693 73.338 207.181 78.6799 201.468C77.4579 200.031 76.0352 198.734 74.4204 197.654C69.7331 194.51 63.7976 193.474 58.2549 194.458H58.2462Z" fill="#2E2854"/>
<path d="M322.61 146.971C325.534 147.372 328.502 147.529 331.461 147.433L328.423 139.822" stroke="#2E2854" stroke-width="1.5" stroke-linecap="round" stroke-linejoin="round"/>
<path d="M331.452 147.433C320.349 138.341 305.065 130.748 290.751 129.581C276.436 128.405 261.422 132.872 251.157 142.887" stroke="#2E2854" stroke-width="1.5" stroke-linecap="round" stroke-linejoin="round"/>
<g style="mix-blend-mode:multiply" opacity="0.15">
<path d="M367.545 196.313C360.501 196.513 353.448 196.339 346.422 195.799C342.668 195.512 339.701 192.516 339.43 188.771C338.889 181.247 338.758 173.863 338.95 166.522C339.055 162.611 342.188 159.468 346.099 159.233C353.544 158.78 361.06 158.971 368.671 160.034C372.311 160.539 375.06 163.63 375.148 167.297C375.322 174.638 375.2 181.953 374.886 189.137C374.711 193.073 371.49 196.2 367.545 196.313Z" fill="#2E2854"/>
</g>
<path d="M362.029 191.758C354.985 191.959 347.932 191.785 340.905 191.245C337.152 190.957 334.184 187.962 333.914 184.217C333.372 176.693 333.242 169.308 333.434 161.967C333.538 158.057 336.672 154.913 340.582 154.678C348.028 154.234 355.543 154.417 363.155 155.479C366.794 155.984 369.544 159.076 369.631 162.742C369.806 170.083 369.684 177.398 369.369 184.583C369.195 188.519 365.974 191.645 362.029 191.758Z" fill="white"/>
<path d="M362.029 191.758C354.985 191.959 347.932 191.785 340.905 191.245C337.152 190.957 334.184 187.962 333.914 184.217C333.372 176.693 333.242 169.308 333.434 161.967C333.538 158.057 336.672 154.913 340.582 154.678C348.028 154.234 355.543 154.417 363.155 155.479C366.794 155.984 369.544 159.076 369.631 162.742C369.806 170.083 369.684 177.398 369.369 184.583C369.195 188.519 365.974 191.645 362.029 191.758Z" stroke="#2E2854" stroke-width="1.5" stroke-linecap="round" stroke-linejoin="round"/>
<path d="M351.528 170.763L346.5 162.072L341.473 170.763H344.632V184.208H348.368V170.763H351.528Z" fill="#76C9BF"/>
<path d="M351.528 175.517L356.564 184.208L361.592 175.517H358.432V162.072H354.697V175.517H351.528Z" fill="#D24D84"/>
<path style="mix-blend-mode:hard-light" d="M210.308 295.78L191.838 213.956L239.016 201.93L254.466 284.058L210.308 295.78Z" fill="url(#paint0_linear_367_10148)"/>
<g style="mix-blend-mode:multiply" opacity="0.15">
<path d="M247.151 271.013C239.016 266.032 227.721 266.868 220.415 272.999C213.11 279.129 210.343 290.085 213.869 298.932C217.395 307.78 226.936 313.859 236.467 313.319C245.999 312.779 254.789 305.655 257.285 296.468C259.782 287.272 255.976 276.412 247.151 271.013Z" fill="#2E2854"/>
</g>
<path d="M244.515 270.804C236.38 265.823 225.085 266.659 217.779 272.79C210.473 278.921 207.706 289.876 211.233 298.723C214.759 307.571 224.3 313.65 233.831 313.11C243.363 312.57 252.153 305.446 254.649 296.259C257.145 287.063 253.34 276.203 244.515 270.796V270.804Z" fill="#F7A145"/>
<path d="M240.081 274.758C233.613 271.614 225.199 273.06 220.154 278.172C215.108 283.292 213.799 291.704 217.055 298.105C220.311 304.506 227.887 308.424 235.01 307.379C242.132 306.334 248.26 300.421 249.543 293.35C250.817 286.288 247.326 278.267 240.081 274.749V274.758Z" fill="#FF8330"/>
<g style="mix-blend-mode:multiply" opacity="0.15">
<path d="M254.649 296.259C256.028 291.173 255.469 285.574 253.209 280.671C255.077 289.797 253.296 301.327 243.302 307.292C233.037 313.423 224.16 310.776 218.975 308.538C223.243 311.664 228.542 313.406 233.831 313.11C243.363 312.57 252.153 305.446 254.649 296.259Z" fill="#2E2854"/>
</g>
<path d="M217.788 272.79C212.673 277.083 209.793 283.736 209.732 290.372C210.43 285.452 212.542 277.597 221.463 272.363C227.651 268.74 235.079 268.174 242.263 269.62C234.39 266.023 224.439 267.199 217.788 272.781V272.79Z" fill="#F5B878"/>
<path d="M240.081 274.758C233.613 271.614 225.199 273.06 220.154 278.172C215.108 283.292 213.799 291.704 217.055 298.105C220.311 304.506 227.887 308.424 235.01 307.379C242.132 306.334 248.26 300.421 249.543 293.35C250.817 286.288 247.326 278.267 240.081 274.749V274.758Z" stroke="#2E2854" stroke-width="1.5" stroke-linecap="round" stroke-linejoin="round"/>
<path d="M239.461 288.979C240.718 289.841 241.626 291.199 241.862 292.819L241.905 293.133C242.359 296.207 240.212 299.072 237.122 299.507L236.982 299.525L237.227 301.17L233.631 301.676L233.386 300.03L231.911 300.239L232.155 301.884L228.559 302.39L228.315 300.744L227.477 300.866L225.696 301.118L225.172 297.53L226.953 297.278L226.325 292.976L225.801 289.388L225.234 285.513L223.453 285.765L222.929 282.177L224.71 281.925L225.548 281.803L225.251 279.791L228.847 279.286L229.144 281.298L230.619 281.089L230.322 279.077L233.919 278.572L234.215 280.601C237.061 280.375 239.653 282.395 240.072 285.251L240.116 285.548C240.299 286.784 240.037 287.986 239.47 288.987L239.461 288.979ZM238.309 293.638L238.265 293.324C238.1 292.218 237.07 291.452 235.97 291.609L235.507 291.678L229.93 292.462L230.558 296.764L231.326 296.659L236.607 295.911C237.716 295.754 238.484 294.735 238.318 293.629M228.83 284.999L229.397 288.874L234.975 288.09C235.97 287.951 236.659 287.037 236.511 286.044L236.467 285.748C236.319 284.764 235.394 284.067 234.407 284.206L229.589 284.886L228.821 284.99" fill="#F5B878"/>
<g style="mix-blend-mode:multiply" opacity="0.15">
<path d="M311.158 80.5176C306.183 72.3927 295.743 68.0124 286.447 70.1634C277.143 72.3056 269.688 80.805 268.789 90.2884C267.89 99.7718 273.625 109.517 282.354 113.357C291.091 117.197 302.168 114.846 308.574 107.792C314.99 100.738 316.544 89.3305 311.158 80.5176Z" fill="#2E2854"/>
</g>
<path d="M308.906 79.1419C303.931 71.017 293.491 66.6367 284.195 68.7877C274.891 70.9299 267.436 79.4293 266.537 88.9127C265.638 98.3961 271.373 108.141 280.102 111.981C288.839 115.822 299.916 113.47 306.322 106.417C312.738 99.3628 314.292 87.9548 308.906 79.1419Z" fill="#F7A145"/>
<path d="M303.154 80.6483C298.825 74.9094 290.681 72.384 283.846 74.6482C277.02 76.9124 272.019 83.8181 272.002 90.9938C271.984 98.1695 276.942 105.101 283.759 107.4C290.576 109.699 298.737 107.218 303.093 101.505C307.448 95.7921 307.99 87.0663 303.145 80.6483H303.154Z" fill="#FF8330"/>
<g style="mix-blend-mode:multiply" opacity="0.15">
<path d="M306.322 106.416C309.875 102.506 311.926 97.2725 312.144 91.8734C309.648 100.852 302.805 110.309 291.187 111.093C279.246 111.894 272.551 105.511 268.955 101.165C271.329 105.885 275.249 109.839 280.102 111.972C288.839 115.813 299.916 113.461 306.322 106.408V106.416Z" fill="#2E2854"/>
</g>
<path d="M284.195 68.7787C277.684 70.2766 272.089 74.9007 268.999 80.7789C271.862 76.7208 277.326 70.6685 287.661 70.0676C294.818 69.6496 301.696 72.5146 307.44 77.0691C302.072 70.294 292.662 66.8281 284.195 68.7787Z" fill="#F5B878"/>
<path d="M303.154 80.6483C298.825 74.9094 290.681 72.384 283.846 74.6482C277.02 76.9124 272.019 83.8181 272.002 90.9938C271.984 98.1695 276.942 105.101 283.759 107.4C290.576 109.699 298.737 107.218 303.093 101.505C307.448 95.7921 307.99 87.0663 303.145 80.6483H303.154Z" stroke="#2E2854" stroke-width="1.5" stroke-linecap="round" stroke-linejoin="round"/>
<path d="M296.119 93.0316C296.843 94.3727 297.035 95.9924 296.512 97.5425L296.407 97.8386C295.403 100.782 292.191 102.358 289.241 101.348L289.11 101.305L288.577 102.881L285.147 101.705L285.679 100.129L284.274 99.6412L283.742 101.217L280.311 100.042L280.844 98.4656L280.041 98.1869L278.339 97.6035L279.508 94.1724L281.21 94.7558L282.607 90.6368L283.776 87.2057L285.033 83.4959L283.331 82.9124L284.501 79.4813L286.203 80.0648L287.006 80.3435L287.661 78.4102L291.091 79.5858L290.436 81.5191L291.842 82.0068L292.496 80.0735L295.927 81.2491L295.263 83.1911C297.899 84.2796 299.287 87.2492 298.362 89.9836L298.266 90.2623C297.864 91.4466 297.088 92.3959 296.119 93.0316ZM292.976 96.663L293.081 96.3669C293.439 95.3132 292.872 94.1636 291.816 93.7979L291.37 93.6499L286.037 91.8211L284.641 95.9402L285.374 96.1927L290.419 97.9257C291.475 98.2914 292.627 97.7254 292.985 96.6717M288.464 84.6628L287.207 88.3726L292.54 90.2013C293.483 90.5236 294.521 90.0185 294.836 89.078L294.932 88.7993C295.255 87.8501 294.74 86.8225 293.797 86.4916L289.197 84.9154L288.464 84.6628Z" fill="#F5B878"/>
<path style="mix-blend-mode:hard-light" d="M267.052 85.8646L248.251 167.001L295.761 177.694L311.725 95.4612L267.052 85.8646Z" fill="url(#paint1_linear_367_10148)"/>
<mask id="mask0_367_10148" style="mask-type:luminance" maskUnits="userSpaceOnUse" x="-1" y="-1" width="391" height="376">
<path d="M261.282 12.8359C199.623 -5.39069 128.799 -7.3762 75.0659 27.884C36.2148 53.3821 10.4392 96.5582 2.67943 142.312C-5.07159 188.057 4.4077 235.91 25.5921 277.213C41.2163 307.684 63.71 335.455 93.4833 352.454C122.82 369.209 157.412 374.582 191.218 374.974C224.587 375.357 258.55 371.003 288.882 357.13C332.718 337.084 366.593 297.199 380.9 251.254C395.206 205.308 390.196 154.025 368.863 110.875C347.53 67.7248 312.153 27.8753 261.282 12.8359Z" fill="white"/>
</mask>
<g mask="url(#mask0_367_10148)">
<g style="mix-blend-mode:multiply" opacity="0.15">
<path d="M332.255 236.293C326.538 222.003 323.108 206.493 314.126 193.988C303.041 178.548 284.998 169.778 267.044 163.334C263.674 148.835 259.301 134.64 254.344 120.367C254.457 120.707 254.544 121.046 254.614 121.395C254.448 120.75 254.344 120.367 254.344 120.367C253.366 117.546 250.826 115.212 247.989 114.045C244.262 112.512 240.107 112.556 236.083 112.625C234.564 112.652 233.037 112.678 231.518 112.704C230.226 110.152 228.454 107.801 226.176 105.85C218.94 99.6412 207.663 98.6746 199.467 103.56C195.452 105.955 192.335 109.673 190.441 113.932C172.408 114.872 154.488 116.596 136.9 119.958C129.803 115.804 120.394 115.63 113.298 119.871C105.11 124.756 100.624 135.137 102.692 144.428C104.735 153.616 113.01 161.053 122.358 162.176C122.594 164.223 122.812 166.173 123.021 168.045C121.459 169.056 120.272 170.641 119.512 172.356C118.631 174.35 118.273 176.536 118.037 178.705C117.592 182.832 117.566 187.012 118.09 191.279C118.125 191.576 118.177 191.863 118.238 192.15C119.12 196.2 122.585 199.23 126.792 199.518C127.63 205.256 128.643 211.169 130.03 218.162C123.301 223.483 119.809 232.749 121.677 241.144C123.737 250.444 132.195 257.959 141.692 258.944C151.189 259.928 161.008 254.293 164.936 245.62C166.455 242.267 167.075 238.514 166.822 234.778C175.027 234.168 183.205 233.445 191.375 232.627C190.991 233.541 190.694 234.499 190.529 235.492C190.214 237.329 190.511 239.524 192.082 240.543C193.147 241.239 194.57 241.196 195.757 240.743C196.944 240.29 197.965 239.48 198.96 238.688C202.277 236.023 205.603 233.358 208.92 230.702C209.365 230.65 209.81 230.598 210.255 230.545C208.387 233.036 206.799 235.736 205.559 238.592C204.905 240.099 204.337 241.762 204.721 243.364C205.245 245.489 207.427 246.917 209.609 247.091C211.791 247.266 213.939 246.395 215.789 245.228C219.778 242.729 222.702 238.932 225.705 235.292C231.047 243.486 236.974 251.237 244.149 257.872C246.252 259.823 248.452 261.66 250.704 263.446C256.438 268.009 262.479 272.215 268.039 276.987C291.091 296.781 304.708 325.084 317.486 352.611C317.486 352.611 336.812 341.22 347.225 330.744C357.638 320.268 371.185 296.102 371.185 296.102C355.561 277.806 341.15 258.517 332.273 236.31L332.255 236.293Z" fill="#2E2854"/>
</g>
<path d="M266.695 156.943C285.217 163.073 304.053 171.529 315.723 187.134C324.949 199.465 328.685 214.905 334.682 229.083C343.995 251.106 358.782 270.117 374.764 288.099C374.764 288.099 361.688 312.518 351.484 323.203C341.281 333.879 322.182 345.644 322.182 345.644C308.863 318.37 294.696 290.337 271.26 270.996C265.603 266.328 259.485 262.244 253.663 257.794L224.169 207.791L266.695 156.943Z" fill="#E8614E"/>
<path d="M275.537 160.069C272.604 158.954 269.645 157.909 266.703 156.934L224.178 207.782L235.35 226.731C248.155 224.963 260.55 223.021 268.432 221.219C290.122 216.264 281.324 194.658 275.546 160.069H275.537Z" fill="#D15046"/>
<path d="M199.126 220.087C196.403 223.344 193.575 226.836 192.955 231.033C192.685 232.879 193.016 235.065 194.605 236.049C195.687 236.72 197.101 236.65 198.288 236.171C199.467 235.692 200.47 234.865 201.448 234.055C206.214 230.075 210.988 226.096 215.754 222.107L199.126 220.078V220.087Z" fill="#E8614E"/>
<path d="M205.708 230.493C209.059 227.698 212.403 224.902 215.754 222.107L199.126 220.078C196.403 223.335 193.575 226.827 192.955 231.024C192.911 231.329 192.885 231.651 192.877 231.965C196.237 231.59 200.654 231.085 205.708 230.493Z" fill="#D15046"/>
<path d="M199.126 220.087C196.403 223.344 193.575 226.836 192.955 231.033C192.685 232.879 193.016 235.065 194.605 236.049C195.687 236.72 197.101 236.65 198.288 236.171C199.467 235.692 200.47 234.865 201.448 234.055C206.214 230.075 210.988 226.096 215.754 222.107L199.126 220.078V220.087Z" stroke="#2E2854" stroke-width="1.5" stroke-linecap="round" stroke-linejoin="round"/>
<path d="M216.784 220.74C213.04 224.467 210.046 228.943 208.038 233.82C207.41 235.344 206.877 237.016 207.296 238.601C207.855 240.708 210.063 242.102 212.254 242.232C214.436 242.363 216.566 241.448 218.399 240.255C222.737 237.416 225.757 233.027 229.022 228.995C232.278 224.963 236.153 221.019 241.181 219.73L216.784 220.74Z" fill="#E8614E"/>
<path d="M230.349 227.41C233.325 223.971 236.817 220.853 241.181 219.73L216.784 220.74C214.044 223.466 211.704 226.601 209.863 229.997C216.191 229.239 223.244 228.351 230.34 227.402L230.349 227.41Z" fill="#D15046"/>
<path d="M216.784 220.74C213.04 224.467 210.046 228.943 208.038 233.82C207.41 235.344 206.877 237.016 207.296 238.601C207.855 240.708 210.063 242.102 212.254 242.232C214.436 242.363 216.566 241.448 218.399 240.255C222.737 237.416 225.757 233.027 229.022 228.995C232.278 224.963 236.153 221.019 241.181 219.73L216.784 220.74Z" stroke="#2E2854" stroke-width="1.5" stroke-linecap="round" stroke-linejoin="round"/>
<path d="M124.933 164.449C122.986 165.442 121.564 167.279 120.726 169.291C119.888 171.302 119.565 173.497 119.373 175.665C119.006 179.802 119.067 183.982 119.67 188.24C119.713 188.536 119.766 188.824 119.835 189.111L128.66 180.829L124.924 164.449H124.933Z" fill="#D24D84"/>
<path d="M124.933 164.449C122.986 165.442 121.564 167.279 120.726 169.291C120.141 170.693 119.818 172.191 119.6 173.697C119.853 174.054 120.158 174.376 120.499 174.646C122.314 176.066 124.793 176.275 127.098 176.223C127.263 176.223 127.438 176.205 127.604 176.197L124.924 164.449H124.933Z" fill="#F272A7"/>
<path d="M128.852 151.116C127.377 143.653 126.216 136.129 125.396 128.562C124.828 123.328 128.276 118.504 133.426 117.345C166.804 109.821 201.588 108.55 236.101 107.305C240.125 107.157 244.279 107.035 248.033 108.489C250.896 109.604 253.488 111.885 254.518 114.689C254.518 114.689 257.102 123.589 258.097 129.171C259.101 134.753 197.119 150.298 197.119 150.298L128.852 151.125V151.116Z" fill="#208FAB"/>
<path d="M254.518 114.689C253.488 111.885 250.905 109.604 248.033 108.489C244.28 107.035 240.125 107.157 236.101 107.305C201.588 108.541 166.804 109.821 133.426 117.345C129.673 118.19 126.836 120.985 125.78 124.46C163.365 117.398 201.562 113.601 239.81 113.139C241.748 113.113 243.773 113.122 245.414 114.306C246.104 114.802 246.636 115.517 246.837 116.326C247.954 120.89 247.535 123.476 247.535 123.476C247.535 123.476 243.564 134.84 250.73 133.038C254.195 132.167 255.618 126.341 256.107 120.506C255.26 117.267 254.518 114.698 254.518 114.698V114.689Z" fill="#42C2E3"/>
<path d="M226.063 100.721C218.713 94.6513 207.41 93.9024 199.318 98.9533C191.227 104.004 186.95 114.463 189.193 123.72C191.436 132.977 200.034 140.327 209.548 141.119C219.062 141.912 228.769 136.094 232.522 127.343C236.284 118.591 234.041 107.296 226.063 100.721Z" fill="#F7A145"/>
<path d="M221.114 104.013C215.152 99.9983 206.624 100.251 200.907 104.614C195.19 108.977 192.719 117.119 195.041 123.92C197.363 130.713 204.32 135.65 211.512 135.616C218.705 135.581 225.609 130.573 227.87 123.755C230.13 116.936 227.791 108.506 221.114 104.013Z" fill="#FF8330"/>
<g style="mix-blend-mode:multiply" opacity="0.15">
<path d="M232.522 127.343C234.6 122.492 234.835 116.875 233.281 111.702C233.849 121.003 230.471 132.167 219.735 136.678C208.71 141.311 200.287 137.453 195.478 134.51C199.266 138.202 204.259 140.666 209.548 141.11C219.063 141.903 228.769 136.086 232.522 127.334V127.343Z" fill="#2E2854"/>
</g>
<path d="M199.31 98.9533C193.645 102.489 189.857 108.672 188.861 115.238C190.249 110.466 193.435 102.977 203.011 99.049C209.644 96.3233 217.081 96.8023 223.994 99.2406C216.706 94.5817 206.685 94.3552 199.31 98.9533Z" fill="#F5B878"/>
<path d="M221.114 104.013C215.152 99.9983 206.624 100.251 200.907 104.614C195.19 108.977 192.719 117.119 195.041 123.92C197.363 130.713 204.32 135.65 211.512 135.616C218.705 135.581 225.609 130.573 227.87 123.755C230.13 116.936 227.791 108.506 221.114 104.013Z" stroke="#2E2854" stroke-width="1.5" stroke-linecap="round" stroke-linejoin="round"/>
<path d="M218.504 118.007C219.621 119.035 220.337 120.506 220.346 122.144V122.457C220.363 125.566 217.84 128.1 214.716 128.1H214.576V129.763H210.954V128.1H209.461V129.763H205.839V128.1H203.185L203.168 124.478H204.966L204.948 120.123L204.931 116.501L204.913 112.582H203.115L203.098 108.959H205.743V106.921H209.365V108.959H210.866V106.921H214.489V108.977C217.352 109.151 219.63 111.511 219.639 114.393V114.689C219.639 115.943 219.22 117.093 218.513 118.007H218.504ZM216.714 122.457V122.144C216.714 121.029 215.798 120.123 214.681 120.123H208.579L208.597 124.478H214.698C215.815 124.478 216.714 123.572 216.714 122.457ZM208.536 112.582L208.553 116.501H214.192C215.196 116.501 216.007 115.691 215.999 114.689V114.393C215.999 113.392 215.169 112.582 214.174 112.582H208.536Z" fill="#F5B878"/>
<path d="M140.217 118.704C132.867 112.634 121.564 111.885 113.472 116.936C105.381 121.987 101.104 132.446 103.347 141.703C105.59 150.96 114.188 158.31 123.702 159.102C133.216 159.894 142.923 154.077 146.676 145.325C150.438 136.573 148.195 125.279 140.217 118.704Z" fill="#F7A145"/>
<path d="M135.276 121.996C129.315 117.981 120.787 118.234 115.07 122.596C109.352 126.959 106.882 135.102 109.204 141.903C111.526 148.695 118.483 153.633 125.675 153.598C132.867 153.563 139.772 148.556 142.032 141.737C144.293 134.919 141.954 126.489 135.276 121.996Z" fill="#FF8330"/>
<g style="mix-blend-mode:multiply" opacity="0.15">
<path d="M146.685 145.325C148.762 140.475 148.998 134.858 147.444 129.685C148.011 138.986 144.633 150.15 133.897 154.661C122.873 159.294 114.45 155.436 109.64 152.492C113.429 156.185 118.421 158.649 123.711 159.093C133.225 159.886 142.931 154.069 146.685 145.317V145.325Z" fill="#2E2854"/>
</g>
<path d="M113.472 116.936C107.807 120.472 104.019 126.655 103.024 133.221C104.412 128.449 107.598 120.959 117.173 117.032C123.807 114.306 131.244 114.785 138.157 117.223C130.868 112.564 120.848 112.338 113.472 116.936Z" fill="#F5B878"/>
<path d="M135.276 121.996C129.315 117.981 120.787 118.234 115.07 122.596C109.352 126.959 106.882 135.102 109.204 141.903C111.526 148.695 118.483 153.633 125.675 153.598C132.867 153.563 139.772 148.556 142.032 141.737C144.293 134.919 141.954 126.489 135.276 121.996Z" stroke="#2E2854" stroke-width="1.5" stroke-linecap="round" stroke-linejoin="round"/>
<path d="M132.667 135.99C133.784 137.018 134.5 138.489 134.508 140.126V140.44C134.526 143.549 132.003 146.083 128.878 146.083H128.739V147.746H125.116V146.083H123.624V147.746H120.001V146.083H117.348L117.33 142.46H119.128L119.111 138.106L119.094 134.483L119.076 130.565H117.278L117.26 126.942H119.905V124.904H123.528V126.942H125.029V124.904H128.651V126.959C131.514 127.134 133.793 129.494 133.801 132.376V132.672C133.801 133.926 133.382 135.076 132.675 135.99H132.667ZM130.877 140.44V140.126C130.877 139.012 129.961 138.106 128.843 138.106H122.742L122.76 142.46H128.861C129.978 142.46 130.877 141.555 130.877 140.44ZM122.698 130.565L122.716 134.483H128.355C129.358 134.483 130.17 133.674 130.161 132.672V132.376C130.161 131.375 129.332 130.565 128.337 130.565H122.698Z" fill="#F5B878"/>
<path d="M161.104 215.036C153.755 208.966 142.451 208.217 134.36 213.268C126.268 218.319 121.991 228.778 124.235 238.035C126.478 247.292 135.076 254.642 144.59 255.434C154.104 256.226 163.81 250.409 167.564 241.657C171.326 232.905 169.082 221.611 161.104 215.036Z" fill="#F7A145"/>
<path d="M156.155 218.328C150.194 214.313 141.666 214.566 135.948 218.929C130.231 223.291 127.761 231.434 130.083 238.235C132.405 245.028 139.361 249.965 146.554 249.93C153.746 249.896 160.65 244.888 162.911 238.07C165.172 231.251 162.833 222.821 156.155 218.328Z" fill="#FF8330"/>
<g style="mix-blend-mode:multiply" opacity="0.15">
<path d="M167.564 241.657C169.641 236.816 169.877 231.19 168.323 226.017C168.89 235.318 165.512 246.482 154.776 250.993C143.752 255.626 135.329 251.768 130.519 248.824C134.308 252.517 139.3 254.981 144.59 255.425C154.104 256.218 163.81 250.401 167.564 241.649V241.657Z" fill="#2E2854"/>
</g>
<path d="M134.36 213.268C128.695 216.804 124.907 222.987 123.912 229.553C125.3 224.781 128.486 217.291 138.061 213.364C144.695 210.638 152.131 211.117 159.044 213.555C151.756 208.896 141.736 208.67 134.36 213.268Z" fill="#F5B878"/>
<path d="M156.155 218.328C150.194 214.313 141.666 214.566 135.948 218.929C130.231 223.291 127.761 231.434 130.083 238.235C132.405 245.028 139.361 249.965 146.554 249.93C153.746 249.895 160.65 244.888 162.911 238.07C165.172 231.251 162.833 222.821 156.155 218.328Z" stroke="#2E2854" stroke-width="1.5" stroke-linecap="round" stroke-linejoin="round"/>
<path d="M153.545 232.322C154.663 233.35 155.378 234.821 155.387 236.458V236.772C155.405 239.881 152.882 242.415 149.757 242.415H149.617V244.078H145.995V242.415H144.502V244.078H140.88V242.415H138.227L138.209 238.792H140.007L139.99 234.438L139.972 230.815L139.955 226.897H138.157L138.139 223.274H140.784V221.236H144.406V223.274H145.908V221.236H149.53V223.291C152.393 223.466 154.671 225.826 154.68 228.708V229.004C154.68 230.258 154.261 231.408 153.554 232.322H153.545ZM151.756 236.772V236.458C151.756 235.344 150.839 234.438 149.722 234.438H143.621L143.638 238.792H149.74C150.857 238.792 151.756 237.887 151.756 236.772ZM143.577 226.897L143.595 230.815H149.233C150.237 230.815 151.049 230.006 151.04 229.004V228.708C151.04 227.707 150.211 226.897 149.216 226.897H143.577Z" fill="#F5B878"/>
<g style="mix-blend-mode:multiply" opacity="0.15">
<path d="M176.825 55.8642C169.475 49.7945 158.172 49.0456 150.08 54.0964C141.989 59.1473 137.712 69.606 139.955 78.863C142.198 88.12 150.796 95.4699 160.31 96.2624C169.824 97.0548 179.531 91.2376 183.284 82.4857C187.046 73.7338 184.803 62.439 176.825 55.8642Z" fill="#2E2854"/>
</g>
<path d="M175.62 51.9716C168.271 45.9018 156.967 45.1529 148.876 50.2038C140.784 55.2546 136.507 65.7134 138.75 74.9704C140.994 84.2274 149.591 91.5773 159.106 92.3697C168.62 93.1622 178.326 87.345 182.079 78.5931C185.841 69.8412 183.598 58.5464 175.62 51.9716Z" fill="#F7A145"/>
<path d="M170.68 55.2633C164.718 51.2488 156.19 51.5013 150.473 55.8642C144.756 60.2271 142.286 68.3694 144.607 75.1707C146.929 81.9632 153.886 86.9009 161.078 86.866C168.271 86.8312 175.175 81.8239 177.436 75.0052C179.696 68.1866 177.357 59.7569 170.68 55.2633Z" fill="#FF8330"/>
<g style="mix-blend-mode:multiply" opacity="0.15">
<path d="M182.079 78.5931C184.157 73.7512 184.392 68.1256 182.839 62.9528C183.406 72.2534 180.028 83.4175 169.292 87.9285C158.268 92.5613 149.845 88.7035 145.035 85.7601C148.823 89.4524 153.816 91.9169 159.106 92.361C168.62 93.1535 178.326 87.3363 182.079 78.5844V78.5931Z" fill="#2E2854"/>
</g>
<path d="M148.876 50.2038C143.211 53.7394 139.422 59.9223 138.427 66.4884C139.815 61.7162 143.001 54.227 152.576 50.2996C159.21 47.5738 166.647 48.0528 173.56 50.4912C166.272 45.8322 156.251 45.6058 148.876 50.2038Z" fill="#F5B878"/>
<path d="M170.68 55.2633C164.718 51.2488 156.19 51.5013 150.473 55.8642C144.756 60.2271 142.286 68.3694 144.607 75.1707C146.929 81.9632 153.886 86.9009 161.078 86.866C168.271 86.8312 175.175 81.8239 177.436 75.0052C179.696 68.1866 177.357 59.7569 170.68 55.2633Z" stroke="#2E2854" stroke-width="1.5" stroke-linecap="round" stroke-linejoin="round"/>
<path d="M168.061 69.2577C169.178 70.2853 169.894 71.757 169.903 73.3942V73.7077C169.92 76.8166 167.398 79.3507 164.273 79.3507H164.133V81.014H160.511V79.3507H159.018V81.014H155.396V79.3507H152.742L152.725 75.728H154.523L154.505 71.3738L154.488 67.7512L154.471 63.8324H152.672L152.655 60.2097H155.3V58.1719H158.922V60.2097H160.424V58.1719H164.046V60.2271C166.909 60.4013 169.187 62.7613 169.196 65.6437V65.9398C169.196 67.1938 168.777 68.3433 168.07 69.2577H168.061ZM166.272 73.7077V73.3942C166.272 72.2795 165.355 71.3738 164.238 71.3738H158.137L158.154 75.728H164.255C165.373 75.728 166.272 74.8224 166.272 73.7077ZM158.102 63.8324L158.119 67.7512H163.758C164.762 67.7512 165.573 66.9413 165.565 65.9398V65.6437C165.565 64.6423 164.735 63.8324 163.74 63.8324H158.102Z" fill="#F5B878"/>
<path style="mix-blend-mode:hard-light" d="M138.244 71.9225L145.856 144.376L194.256 139.055L183.616 66.4884L138.244 71.9225Z" fill="url(#paint2_linear_367_10148)"/>
<path d="M123.004 156.446L121.852 147.381C121.127 142.051 124.331 136.957 129.472 135.337C165.774 123.894 205.044 128.849 241.809 121.064C244.087 120.585 246.828 119.557 246.915 117.145C246.924 116.866 246.898 116.588 246.828 116.326C246.828 116.326 249.08 119.087 251.149 130.364C251.149 130.364 216.968 144.916 185.71 148.878C154.462 152.841 122.995 156.455 122.995 156.455L123.004 156.446Z" fill="#42C2E3"/>
<path d="M123.004 156.446C127.098 186.533 127.761 196.809 134.299 224.389C135.521 229.535 140.287 233.045 145.576 232.688C186.609 229.919 227.084 224.354 267.079 216.438C272.473 215.367 276.209 210.473 275.834 204.995C273.643 172.905 265.307 143.932 254.509 114.681C254.832 115.551 254.998 116.474 254.981 117.424C254.928 120.35 253.095 123.032 250.73 124.765C248.365 126.498 245.51 127.412 242.665 128.144C234.05 130.338 225.129 131.009 216.261 131.662L151.686 136.443C145.114 136.93 138.323 137.479 132.492 140.553C126.661 143.627 122.009 149.941 123.004 156.446Z" fill="#33A1BD"/>
<g style="mix-blend-mode:multiply" opacity="0.15">
<path d="M268.37 158.632C263.622 193.23 247.046 199.657 223.645 205.074L217.753 199.474C217.753 199.474 210.116 198.229 209.251 204.255C209.094 205.326 209.391 206.667 209.976 208.156C209.042 208.374 208.108 208.592 207.157 208.818C177.191 216.037 144.852 216.168 132.361 215.889C132.946 218.554 133.592 221.358 134.307 224.389C135.529 229.535 140.295 233.045 145.585 232.688C186.618 229.918 227.093 224.354 267.087 216.438C272.482 215.367 276.217 210.473 275.842 204.995C274.742 188.902 272.098 173.584 268.37 158.632Z" fill="#2E2854"/>
</g>
<g style="mix-blend-mode:multiply" opacity="0.15">
<path d="M129.367 201.12C133.417 201.085 138.515 200.763 143.769 199.744C155.57 197.445 159.018 194.458 160.52 188.205C162.021 181.953 158.215 177.982 158.215 177.982L126.111 179.88C127.124 187.448 128.075 193.979 129.367 201.12Z" fill="#2E2854"/>
</g>
<path d="M119.835 189.111C120.796 193.152 124.331 196.121 128.564 196.313C135.564 196.626 142.984 196.182 149.967 195.05C156.365 194.005 160.694 187.97 159.708 181.57C159.664 181.3 159.62 181.03 159.577 180.76C158.617 174.794 153.353 170.484 147.304 170.771C139.824 171.128 131.977 171.485 125.046 171.842L119.827 189.12L119.835 189.111Z" fill="#D24D84"/>
<path d="M147.304 170.762C139.824 171.12 131.977 171.477 125.046 171.834L123.789 176.014C124.872 176.205 125.998 176.249 127.098 176.223C132.824 176.092 138.445 174.699 144.145 174.159C148.701 173.723 153.484 173.898 157.43 175.613C155.143 172.495 151.407 170.58 147.313 170.771L147.304 170.762Z" fill="#F272A7"/>
<path d="M149.94 180.995C151.677 182.771 151.677 185.95 149.94 187.726C148.203 189.503 145.018 189.581 143.193 187.883C141.369 186.185 141.221 183.015 142.879 181.152C144.537 179.297 147.889 178.879 149.949 180.986L149.94 180.995Z" fill="#2E2854"/>
<path d="M253.34 224.058C246.357 215.036 235.891 205.718 226.002 200.014C224.064 198.891 222.013 197.828 219.787 197.584C217.561 197.34 215.091 198.081 213.843 199.944C211.896 202.862 213.677 206.728 215.466 209.75C224.492 225.016 233.735 240.551 247.003 252.351C249.15 254.258 251.385 256.052 253.663 257.803" fill="#E8614E"/>
<path d="M253.34 224.058C246.357 215.036 235.891 205.718 226.002 200.014C224.064 198.891 222.013 197.828 219.787 197.584C217.561 197.34 215.091 198.081 213.843 199.944C211.896 202.862 213.677 206.728 215.466 209.75C224.492 225.016 233.735 240.551 247.003 252.351C249.15 254.258 251.385 256.052 253.663 257.803" stroke="#2E2854" stroke-width="1.5" stroke-linecap="round" stroke-linejoin="round"/>
</g>
<path d="M323.544 361.31C321.659 360.013 318.787 360.44 317.373 362.234C315.95 364.027 316.221 366.927 317.958 368.416C319.695 369.906 322.619 369.731 324.155 368.033C325.683 366.335 325.927 362.939 323.553 361.31H323.544Z" fill="#F2D3E8"/>
<path d="M18.4524 312.944C16.567 311.647 13.6953 312.073 12.2812 313.867C10.8672 315.661 11.129 318.561 12.866 320.05C14.603 321.539 17.5271 321.365 19.0634 319.667C20.5909 317.969 20.8353 314.573 18.4611 312.944H18.4524Z" fill="#F2D3E8"/>
<path d="M382.323 69.9718C380.437 68.6742 377.565 69.1009 376.151 70.8949C374.729 72.6888 374.999 75.5887 376.736 77.0778C378.473 78.5669 381.397 78.3928 382.934 76.6946C384.461 74.9965 384.705 71.6002 382.331 69.9718H382.323Z" fill="#F2D3E8"/>
<path d="M35.2724 19.3326C32.8197 17.0249 28.8133 16.572 25.9066 18.2876C23.0087 20.0031 21.4725 23.7303 22.3279 26.9785C23.1833 30.2355 26.3518 32.7261 29.721 32.8044C33.0903 32.8828 36.3722 30.5316 37.3673 27.3182C38.1529 24.8014 37.6117 21.5358 35.2724 19.3326Z" fill="#F2D3E8"/>
<path d="M106.001 178.739C105.957 181.152 105.904 183.555 105.861 185.967" stroke="white" stroke-width="1.5" stroke-linecap="round" stroke-linejoin="round"/>
<path d="M102.203 182.249L109.413 182.083" stroke="white" stroke-width="1.5" stroke-linecap="round" stroke-linejoin="round"/>
<path d="M201.474 264.16C201.431 266.572 201.378 268.976 201.335 271.388" stroke="#2E2854" stroke-width="1.5" stroke-linecap="round" stroke-linejoin="round"/>
<path d="M197.677 267.661L204.887 267.495" stroke="#2E2854" stroke-width="1.5" stroke-linecap="round" stroke-linejoin="round"/>
<path d="M115.995 102.384C115.951 104.797 115.899 107.2 115.855 109.612" stroke="#2E2854" stroke-width="1.5" stroke-linecap="round" stroke-linejoin="round"/>
<path d="M112.198 105.894L119.408 105.728" stroke="#2E2854" stroke-width="1.5" stroke-linecap="round" stroke-linejoin="round"/>
<path d="M296.983 52.8598C296.939 55.272 296.887 57.6756 296.843 60.0878" stroke="white" stroke-width="1.5" stroke-linecap="round" stroke-linejoin="round"/>
<path d="M293.177 56.3606L300.396 56.1951" stroke="white" stroke-width="1.5" stroke-linecap="round" stroke-linejoin="round"/>
<path d="M333.704 29.5736C332.369 29.3995 330.981 30.3661 330.693 31.6811C330.405 32.996 331.269 34.459 332.561 34.8422C333.852 35.2341 335.38 34.4939 335.869 33.2398C336.358 31.9858 335.886 29.861 333.704 29.5736Z" fill="#F2D3E8"/>
<path d="M8.0216 62.2736C6.68612 62.0994 5.29827 63.066 5.01023 64.381C4.72218 65.696 5.58632 67.159 6.87815 67.5421C8.16999 67.934 9.6975 67.1938 10.1863 65.9398C10.6751 64.6858 10.2038 62.561 8.0216 62.2736Z" fill="#F2D3E8"/>
<path d="M43.4685 338.843C42.133 338.669 40.7452 339.635 40.4571 340.95C40.1691 342.265 41.0332 343.728 42.3251 344.111C43.6169 344.503 45.1444 343.763 45.6332 342.509C46.122 341.255 45.6507 339.13 43.4685 338.843Z" fill="#F2D3E8"/>
<path d="M368.243 41.5215C366.908 41.3474 365.52 42.314 365.232 43.6289C364.944 44.9439 365.808 46.4069 367.1 46.7901C368.392 47.182 369.919 46.4418 370.408 45.1877C370.897 43.9337 370.426 41.8089 368.243 41.5215Z" fill="#F2D3E8"/>
<path d="M120.865 332.503C119.53 332.329 118.142 333.296 117.854 334.611C117.566 335.926 118.43 337.389 119.722 337.772C121.014 338.164 122.541 337.423 123.03 336.169C123.519 334.915 123.047 332.791 120.865 332.503Z" fill="white"/>
<path d="M341.831 124.922C340.495 124.747 339.107 125.714 338.819 127.029C338.531 128.344 339.395 129.807 340.687 130.19C341.979 130.582 343.506 129.842 343.995 128.588C344.484 127.334 344.013 125.209 341.831 124.922Z" fill="white"/>
<path d="M273.424 324.021C272.089 323.847 270.701 324.814 270.413 326.129C270.125 327.444 270.989 328.907 272.281 329.29C273.573 329.682 275.1 328.941 275.589 327.687C276.078 326.433 275.606 324.309 273.424 324.021Z" fill="white"/>
<path d="M123.205 82.5293C123.161 84.9415 123.109 87.345 123.065 89.7572" stroke="white" stroke-width="1.5" stroke-linecap="round" stroke-linejoin="round"/>
<path d="M119.408 86.03L126.617 85.8646" stroke="white" stroke-width="1.5" stroke-linecap="round" stroke-linejoin="round"/>
<path d="M244.541 170.588C244.498 173.001 244.445 175.404 244.402 177.816" stroke="white" stroke-width="1.5" stroke-linecap="round" stroke-linejoin="round"/>
<path d="M240.744 174.089L247.954 173.924" stroke="white" stroke-width="1.5" stroke-linecap="round" stroke-linejoin="round"/>
<path d="M169.318 128.771C169.274 131.183 169.222 133.586 169.178 135.999" stroke="white" stroke-width="1.5" stroke-linecap="round" stroke-linejoin="round"/>
<path d="M165.521 132.271L172.731 132.106" stroke="white" stroke-width="1.5" stroke-linecap="round" stroke-linejoin="round"/>
<path d="M180.421 25.0279C180.377 27.4401 180.325 29.8436 180.281 32.2558" stroke="white" stroke-width="1.5" stroke-linecap="round" stroke-linejoin="round"/>
<path d="M176.615 28.5286L183.825 28.3632" stroke="white" stroke-width="1.5" stroke-linecap="round" stroke-linejoin="round"/>
<path d="M156.853 273.217C156.81 275.629 156.757 278.032 156.714 280.444" stroke="white" stroke-width="1.5" stroke-linecap="round" stroke-linejoin="round"/>
<path d="M153.057 276.726L160.266 276.561" stroke="white" stroke-width="1.5" stroke-linecap="round" stroke-linejoin="round"/>
<path d="M230.121 83.8703C230.078 86.2826 230.025 88.6861 229.982 91.0983" stroke="#2E2854" stroke-width="1.5" stroke-linecap="round" stroke-linejoin="round"/>
<path d="M226.316 87.3798L233.526 87.2144" stroke="#2E2854" stroke-width="1.5" stroke-linecap="round" stroke-linejoin="round"/>
<path d="M79.125 307.554C79.125 306.247 78.0601 305.194 76.7595 305.194C75.4589 305.194 74.394 306.256 74.394 307.554C74.394 308.851 75.4589 309.914 76.7595 309.914C78.0601 309.914 79.125 308.851 79.125 307.554Z" stroke="#2E2854" stroke-width="1.5" stroke-linecap="round" stroke-linejoin="round"/>
<path d="M23.8902 160.417C25.1966 160.417 26.2557 159.36 26.2557 158.057C26.2557 156.754 25.1966 155.697 23.8902 155.697C22.5838 155.697 21.5248 156.754 21.5248 158.057C21.5248 159.36 22.5838 160.417 23.8902 160.417Z" stroke="#2E2854" stroke-width="1.5" stroke-linecap="round" stroke-linejoin="round"/>
<path d="M350.681 338.024C351.988 338.024 353.047 336.968 353.047 335.664C353.047 334.361 351.988 333.304 350.681 333.304C349.375 333.304 348.316 334.361 348.316 335.664C348.316 336.968 349.375 338.024 350.681 338.024Z" stroke="#2E2854" stroke-width="1.5" stroke-linecap="round" stroke-linejoin="round"/>
<path d="M230.418 27.3878C231.725 27.3878 232.784 26.3312 232.784 25.0279C232.784 23.7245 231.725 22.6679 230.418 22.6679C229.112 22.6679 228.053 23.7245 228.053 25.0279C228.053 26.3312 229.112 27.3878 230.418 27.3878Z" stroke="#2E2854" stroke-width="1.5" stroke-linecap="round" stroke-linejoin="round"/>
</g>
<defs>
<linearGradient id="paint0_linear_367_10148" x1="234.401" y1="284.982" x2="215.936" y2="216.012" gradientUnits="userSpaceOnUse">
<stop stop-color="#F7D7B4" stop-opacity="0.75"/>
<stop offset="1" stop-color="#F7D7B4" stop-opacity="0"/>
</linearGradient>
<linearGradient id="paint1_linear_367_10148" x1="272.855" y1="168.42" x2="287.692" y2="98.6377" gradientUnits="userSpaceOnUse">
<stop stop-color="#F7D7B4" stop-opacity="0.75"/>
<stop offset="1" stop-color="#F7D7B4" stop-opacity="0"/>
</linearGradient>
<linearGradient id="paint2_linear_367_10148" x1="169.632" y1="138.272" x2="162.073" y2="76.255" gradientUnits="userSpaceOnUse">
<stop stop-color="#F7D7B4" stop-opacity="0.75"/>
<stop offset="1" stop-color="#F7D7B4" stop-opacity="0"/>
</linearGradient>
<clipPath id="clip0_367_10148">
<rect width="389" height="375" fill="white"/>
</clipPath>
</defs>
</svg>
