<svg width="94" height="93" viewBox="0 0 94 93" fill="none" xmlns="http://www.w3.org/2000/svg">
<path d="M93.9793 44.7968C93.9276 42.9904 93.7553 41.2044 93.4921 39.4575L84.189 37.9158L81.0352 29.1141L87.2347 22.0075C85.3546 18.8788 83.1174 15.9992 80.5887 13.4094L72.1536 17.6442L64.4203 12.3864L65.2569 2.97987C62.0499 1.62781 58.658 0.611015 55.1376 0L50.7555 8.37091L41.4023 8.59025L36.5972 0.448078C33.0016 1.26746 29.5658 2.48636 26.3415 4.07187L27.7202 13.4141L20.2862 19.0997L11.6239 15.36C9.24564 18.0813 7.17289 21.08 5.46831 24.3137L12.0594 31.0521L9.40388 40.0152L0.197914 42.0896C0.0318431 43.9445 -0.0386586 45.8402 0.0208762 47.7657C0.0866778 49.5236 0.243348 51.2469 0.481488 52.9468L9.78929 54.5151L12.9133 63.3278L6.67311 70.4172C8.55942 73.5474 10.7873 76.4584 13.3159 79.056L21.7683 74.8478L29.4859 80.1292L28.6117 89.5388C31.9221 90.9394 35.4128 91.9938 39.0412 92.6142L43.3983 84.223L52.7499 83.9644L57.5691 92.0925C61.1616 91.2575 64.5926 90.0198 67.8154 88.428L66.41 79.0904L73.8174 73.372L82.4876 77.0882C84.8658 74.348 86.9339 71.3446 88.6243 68.1141L81.994 61.4023L84.6167 52.4126L93.8289 50.3242C93.9778 48.5021 94.0389 46.6565 93.9746 44.7984L93.9793 44.7968ZM60.8999 62.1058C52.1734 69.7717 38.8642 68.9554 31.1623 60.1834C23.5042 51.4208 24.3534 38.1289 33.1081 30.4693C41.8253 22.7658 55.1423 23.6212 62.816 32.3603C70.5305 41.1166 69.6453 54.4368 60.8999 62.1073V62.1058Z" fill="#6750A4"/>
<path d="M70.1639 25.9399C58.9306 13.1494 39.4251 11.8756 26.6314 23.1073C13.8518 34.3516 12.5843 53.8242 23.8458 66.6351C35.0759 79.421 54.5689 80.6791 67.3501 69.4489C80.1453 58.2172 81.3987 38.7243 70.1639 25.9415V25.9399ZM65.3556 67.1772C53.8263 77.3075 36.2447 76.1732 26.1144 64.6391C15.9558 53.0847 17.098 35.5204 28.6258 25.3775C40.1661 15.2456 57.7602 16.3956 67.8921 27.9328C78.0256 39.4622 76.8944 57.0453 65.3541 67.1772H65.3556Z" fill="#F5EFF7"/>
<path d="M67.3516 69.4489C71.7415 65.5964 74.7715 60.7694 76.4056 55.5773C74.6947 57.1377 72.9557 58.6104 71.1963 60.0017C69.7032 62.6353 67.7589 65.07 65.3572 67.1788C60.1103 71.7896 53.6085 74.0582 47.127 74.0832C45.0182 74.9653 42.9235 75.7659 40.8555 76.4897C49.9768 78.3384 59.8267 76.0604 67.3516 69.4489Z" fill="#938F96"/>
</svg>
